<svg width="655" height="581" viewBox="0 0 655 581" fill="none" xmlns="http://www.w3.org/2000/svg">
<g clip-path="url(#clip0_1_1221)">
<path d="M224.045 578.555C211.693 578.541 199.641 582.352 189.549 589.464H258.493C248.415 582.36 236.38 578.549 224.045 578.555Z" fill="#E6E6E6"/>
<path d="M688.035 509.504C684.951 453.64 640.017 408.093 584.136 404.275C558.377 402.467 532.784 409.608 511.691 424.489C490.599 439.369 475.304 461.075 468.398 485.929C467.041 485.88 465.686 485.826 464.318 485.826C440.133 485.83 416.599 493.656 397.238 508.134C377.876 522.611 363.728 542.961 356.909 566.14C340.883 559.106 322.974 557.58 305.987 561.801C289 566.021 273.893 575.75 263.034 589.464H612.228C655.128 589.464 689.864 553.97 688.114 511.153C688.092 510.605 688.065 510.055 688.035 509.504Z" fill="#E6E6E6"/>
<path d="M327.327 207.984C327.327 207.984 282.811 194.133 289.644 216.922C296.478 239.71 333.974 228.199 333.974 228.199L327.327 207.984Z" fill="#FFB8B8"/>
<path d="M497.495 122.449C497.495 122.449 474.681 91.3077 452.516 123.636C430.307 156.028 409.659 182.619 409.659 182.619L354.502 200.583L322.592 203.411L331.383 231.75L424.163 218.305C424.163 218.305 527.457 157.015 497.495 122.449Z" fill="#32A287"/>
<path d="M395.666 294.906C395.666 294.906 361.009 319.139 363.319 341.063C365.63 362.988 380.648 422.993 380.648 422.993L411.839 418.377C411.839 418.377 415.304 372.22 403.752 354.911L459.203 323.754L395.666 294.906Z" fill="#FFB8B8"/>
<path d="M472.488 352.026C472.488 352.026 470.178 394.721 475.954 412.03C481.73 429.34 487.506 493.96 487.506 493.96H519.853C519.853 493.96 534.87 437.417 516.387 412.03C516.387 412.03 510.611 378.566 526.784 362.411L472.488 352.026Z" fill="#FFB8B8"/>
<path d="M464.979 233.747C464.979 233.747 389.889 281.059 389.889 296.06L449.961 345.679L470.755 322.6L468.445 357.219L533.138 369.912C533.138 369.912 556.242 282.213 555.087 278.751C553.932 275.289 550.466 224.516 550.466 224.516L464.979 233.747Z" fill="#2F2E41"/>
<path d="M411.839 412.607L378.337 419.531L384.289 443.974C387.219 456.005 387.553 468.52 385.268 480.69C385.268 480.69 419.925 489.921 419.925 485.305C419.925 480.69 411.839 462.227 414.149 449.533C416.46 436.84 411.839 412.607 411.839 412.607Z" fill="#6C464E"/>
<path d="M429.167 499.153C428.012 494.537 418.414 473.609 418.014 477.15C417.615 480.69 399.131 486.459 392.2 479.536C392.2 479.536 382.958 471.458 379.492 479.536C376.027 487.613 369.095 501.461 369.095 501.461C369.095 501.461 337.904 516.462 342.525 524.539C343.46 526.173 346.049 526.862 349.584 526.923C349.501 527.136 349.458 527.363 349.456 527.592V528.41C349.456 528.914 349.657 529.397 350.013 529.753C350.37 530.109 350.853 530.309 351.358 530.309H352.176C352.68 530.309 353.164 530.109 353.521 529.753C353.877 529.397 354.077 528.914 354.077 528.41V527.592C354.076 527.298 354.004 527.008 353.87 526.746C354.815 526.663 355.795 526.554 356.802 526.422C356.536 526.754 356.389 527.166 356.388 527.592V528.41C356.388 528.914 356.588 529.397 356.945 529.753C357.301 530.109 357.785 530.309 358.289 530.309H359.108C359.612 530.309 360.095 530.109 360.452 529.753C360.808 529.397 361.009 528.914 361.009 528.41V527.592C361.008 527.254 360.916 526.922 360.743 526.631C360.57 526.341 360.322 526.101 360.025 525.939C362.684 525.496 365.46 524.932 368.219 524.307C368.038 524.601 367.942 524.939 367.94 525.284V526.102C367.94 526.606 368.14 527.089 368.497 527.445C368.853 527.801 369.337 528.001 369.841 528.001H370.66C371.164 528.001 371.648 527.801 372.004 527.445C372.361 527.089 372.561 526.606 372.561 526.102V525.284C372.561 524.917 372.454 524.558 372.253 524.25C372.053 523.943 371.767 523.7 371.431 523.551C373.5 523.047 375.529 522.522 377.46 522.001C377.279 522.295 377.183 522.632 377.182 522.976V523.794C377.182 524.298 377.382 524.781 377.739 525.137C378.095 525.493 378.579 525.693 379.083 525.693H379.902C380.406 525.693 380.889 525.493 381.246 525.137C381.603 524.781 381.803 524.298 381.803 523.794V522.976C381.802 522.573 381.672 522.18 381.431 521.855C381.191 521.53 380.852 521.291 380.466 521.172C387.25 519.263 392.2 517.616 392.2 517.616C392.2 517.616 397.948 515.526 404.907 512.704V513.409C404.907 513.912 405.108 514.395 405.464 514.752C405.821 515.108 406.304 515.308 406.809 515.308H407.627C408.131 515.308 408.615 515.108 408.971 514.752C409.328 514.395 409.528 513.912 409.528 513.409V512.591C409.528 512.303 409.461 512.019 409.333 511.761C409.206 511.503 409.021 511.277 408.793 511.101C410.19 510.515 411.6 509.911 412.994 509.298V509.947C412.994 510.451 413.194 510.934 413.551 511.29C413.907 511.646 414.391 511.846 414.895 511.846H415.714C416.218 511.846 416.702 511.646 417.058 511.29C417.415 510.934 417.615 510.451 417.615 509.947V509.129C417.615 508.824 417.541 508.523 417.399 508.252C417.257 507.982 417.052 507.749 416.801 507.575C418.309 506.872 419.76 506.171 421.099 505.483C421.093 505.545 421.081 505.604 421.081 505.667V506.485C421.081 506.989 421.281 507.472 421.637 507.828C421.994 508.184 422.478 508.384 422.982 508.384H423.8C424.305 508.384 424.788 508.184 425.145 507.828C425.501 507.472 425.701 506.989 425.701 506.485V505.667C425.701 505.23 425.55 504.805 425.273 504.466C424.995 504.127 424.61 503.894 424.18 503.807C427.41 501.933 429.447 500.271 429.167 499.153Z" fill="#2F2E41"/>
<path d="M522.163 488.767L485.565 486.459C485.565 486.459 487.783 524.539 483.347 537.233C478.911 549.926 481.129 554.542 481.129 554.542L513.291 556.849L522.163 488.767Z" fill="#6C464E"/>
<path d="M522.613 572.929C522.447 568.174 517.428 545.708 516.299 549.087C515.169 552.466 495.887 554.259 490.553 546.044C490.553 546.044 483.201 536.219 478.125 543.397C473.049 550.576 463.38 562.675 463.38 562.675C463.38 562.675 429.743 570.85 432.576 579.712C433.149 581.505 435.538 582.718 438.983 583.514C438.857 583.705 438.767 583.918 438.718 584.142L438.547 584.942C438.442 585.434 438.537 585.948 438.812 586.371C439.086 586.793 439.517 587.09 440.01 587.195L440.811 587.365C441.304 587.47 441.819 587.375 442.242 587.101C442.665 586.827 442.962 586.397 443.067 585.904L443.237 585.104C443.297 584.816 443.288 584.517 443.211 584.233C444.152 584.349 445.134 584.446 446.147 584.527C445.817 584.796 445.587 585.169 445.497 585.585L445.326 586.385C445.221 586.878 445.316 587.392 445.591 587.814C445.865 588.237 446.296 588.533 446.789 588.638L447.59 588.809C448.083 588.914 448.598 588.819 449.021 588.545C449.444 588.271 449.74 587.84 449.846 587.348L450.016 586.548C450.086 586.217 450.066 585.873 449.957 585.553C449.849 585.232 449.656 584.947 449.4 584.726C452.093 584.846 454.925 584.873 457.754 584.836C457.516 585.086 457.351 585.397 457.277 585.734L457.106 586.534C457.001 587.027 457.096 587.541 457.371 587.963C457.645 588.386 458.076 588.682 458.569 588.787L459.37 588.958C459.863 589.063 460.378 588.968 460.801 588.694C461.224 588.42 461.521 587.989 461.626 587.497L461.796 586.697C461.873 586.338 461.843 585.964 461.711 585.621C461.579 585.279 461.35 584.982 461.053 584.766C463.182 584.705 465.276 584.613 467.273 584.506C467.035 584.755 466.871 585.065 466.798 585.402L466.627 586.202C466.522 586.694 466.617 587.208 466.891 587.631C467.165 588.054 467.597 588.35 468.09 588.455L468.89 588.626C469.383 588.731 469.898 588.636 470.321 588.362C470.744 588.087 471.041 587.657 471.146 587.164L471.317 586.364C471.4 585.969 471.355 585.558 471.187 585.19C471.02 584.823 470.739 584.518 470.386 584.321C477.42 583.867 482.604 583.287 482.604 583.287C482.604 583.287 488.662 582.441 496.058 581.13L495.911 581.819C495.806 582.312 495.901 582.826 496.175 583.248C496.449 583.671 496.88 583.967 497.374 584.072L498.174 584.243C498.667 584.348 499.182 584.253 499.605 583.979C500.028 583.705 500.325 583.274 500.43 582.782L500.601 581.982C500.66 581.7 500.654 581.408 500.583 581.129C500.513 580.85 500.379 580.591 500.193 580.372C501.682 580.089 503.186 579.792 504.678 579.483L504.542 580.118C504.437 580.61 504.532 581.124 504.806 581.547C505.081 581.969 505.512 582.266 506.005 582.371L506.806 582.541C507.299 582.646 507.813 582.551 508.237 582.277C508.66 582.003 508.956 581.573 509.061 581.08L509.232 580.28C509.296 579.981 509.286 579.672 509.204 579.378C509.122 579.083 508.97 578.813 508.761 578.59C510.382 578.217 511.948 577.833 513.401 577.44C513.382 577.499 513.357 577.555 513.344 577.616L513.174 578.416C513.068 578.909 513.164 579.423 513.438 579.845C513.712 580.268 514.143 580.564 514.637 580.669L515.437 580.84C515.93 580.945 516.445 580.85 516.868 580.576C517.291 580.302 517.588 579.871 517.693 579.378L517.864 578.579C517.955 578.15 517.895 577.704 517.695 577.315C517.495 576.925 517.166 576.617 516.764 576.442C520.315 575.282 522.654 574.081 522.613 572.929Z" fill="#2F2E41"/>
<path d="M464.979 83.7357C483.482 83.7357 498.481 68.7533 498.481 50.2715C498.481 31.7898 483.482 16.8074 464.979 16.8074C446.477 16.8074 431.478 31.7898 431.478 50.2715C431.478 68.7533 446.477 83.7357 464.979 83.7357Z" fill="#FFB8B8"/>
<path d="M495.015 46.8097C495.015 46.8097 513.499 69.8884 522.741 68.7345L482.308 99.8908C482.308 99.8908 477.687 80.2738 471.911 77.966C466.134 75.6581 495.015 46.8097 495.015 46.8097Z" fill="#FFB8B8"/>
<path d="M567.217 218.169C567.217 218.169 567.214 90.8366 545.83 79.8679C524.458 68.9055 510.321 62.6487 510.321 62.6487C510.006 66.8268 508.818 70.8925 506.832 74.583C504.846 78.2735 502.107 81.5068 498.792 84.074C491.706 89.5387 484.646 94.07 480.702 94.0845L480.575 93.5441L480.094 92.1723L468.445 110.276C468.445 110.276 458.048 112.584 454.582 119.508C452.707 123.253 461.549 160.961 456.315 195.09C451.875 224.047 433.163 250.186 432.633 253.364C431.736 258.736 454.479 244.661 464.72 238.081C464.871 238.25 464.979 238.363 464.979 238.363C464.979 238.363 459.203 240.671 470.755 237.209C477.301 235.248 486.44 235.139 493.135 235.413C493.126 237.418 493.174 239.01 493.282 240.094C494.438 251.633 552.199 267.788 560.286 264.327C568.372 260.865 567.217 218.169 567.217 218.169Z" fill="#32A287"/>
<path d="M526.784 262.019C526.784 262.019 492.127 293.175 515.232 298.945C538.336 304.714 547.578 266.635 547.578 266.635L526.784 262.019Z" fill="#FFB8B8"/>
<path d="M486.351 342.794C486.351 342.794 502.524 327.793 511.766 335.871C521.008 343.948 526.784 349.718 526.784 349.718C526.784 349.718 500.214 333.563 486.351 342.794Z" fill="#6C464E"/>
<path d="M490.552 522.287C490.552 522.287 499.668 513.832 504.877 518.385C510.086 522.938 513.341 526.19 513.341 526.19C513.341 526.19 498.365 517.084 490.552 522.287Z" fill="#2F2E41"/>
<path d="M388.426 443.641C388.426 443.641 394.684 432.902 400.994 435.743C407.304 438.585 411.366 440.75 411.366 440.75C411.366 440.75 394.385 436.392 388.426 443.641Z" fill="#2F2E41"/>
<path d="M558.488 95.7006C547.036 72.7074 512.193 85.2478 517.855 110.299C517.939 110.672 518.027 111.049 518.12 111.43C524.087 135.144 533.839 157.742 547 178.358L534.293 234.901L520.43 263.75L549.311 270.673L585.123 184.128C585.123 184.128 575.245 129.347 558.488 95.7006Z" fill="#32A287"/>
<path opacity="0.2" d="M541.802 180.089L519.853 263.172L538.336 223.939L541.802 180.089Z" fill="black"/>
<path d="M486.019 11.264C486.019 11.264 467.501 -8.21043 448.861 4.0538C430.221 16.318 421.379 28.2315 423.206 36.5267C425.034 44.8218 430.443 56.36 430.443 56.36C430.443 56.36 427.081 39.1748 442.515 37.9031C457.95 36.6314 479.273 26.4287 479.273 26.4287L493.697 57.1971C493.697 57.1971 495.736 50.067 501.39 52.1121C507.043 54.1572 502.661 13.545 486.019 11.264Z" fill="#2F2E41"/>
<path d="M367.362 451.264C367.361 454.187 367.118 457.105 366.635 459.988V460C365.308 467.754 362.235 475.107 357.648 481.502C353.061 487.897 347.079 493.168 340.155 496.917C333.23 500.665 325.543 502.793 317.675 503.141C309.807 503.488 301.962 502.046 294.733 498.922H294.722C292.583 498 290.51 496.932 288.518 495.725C282.345 492.002 277.013 487.038 272.86 481.149C268.708 475.259 265.826 468.572 264.397 461.511C263.727 458.137 263.391 454.705 263.392 451.264C263.392 449.695 263.461 448.137 263.6 446.602V446.591C264.799 433.34 271.044 421.055 281.046 412.269C291.049 403.484 304.046 398.869 317.356 399.376C330.666 399.884 343.273 405.476 352.576 414.998C361.879 424.52 367.168 437.245 367.351 450.549V450.56C367.362 450.803 367.362 451.022 367.362 451.264Z" fill="#6C464E"/>
<path d="M328.174 433.92H304.891L293.249 413.784L301.146 400.112L301.607 399.989C311.603 397.32 322.161 397.615 331.993 400.837L332.411 400.976L339.816 413.784L328.174 433.92ZM306.225 431.612H326.84L337.148 413.784L330.853 402.894C321.717 400 311.952 399.724 302.667 402.096L295.917 413.784L306.225 431.612Z" fill="white"/>
<path d="M327.019 475.463H303.736L292.094 455.322L303.736 435.181H327.019L338.661 455.322L327.019 475.463ZM305.069 473.155H325.685L335.993 455.322L325.685 437.489H305.069L294.762 455.322L305.069 473.155Z" fill="white"/>
<path d="M315.377 504.345C308.116 504.359 300.931 502.873 294.273 499.98L293.086 499.465L304.89 479.027H328.174L339.481 498.593L338.358 499.131C331.191 502.582 323.334 504.364 315.377 504.345ZM296.389 498.364C302.741 500.917 309.543 502.163 316.388 502.028C323.234 501.892 329.981 500.379 336.227 497.577L326.84 481.335H306.225L296.389 498.364Z" fill="white"/>
<path d="M366.296 454.691H343.014L331.372 434.555L343.013 414.407H353.615L353.957 414.767C363.151 424.428 368.348 437.205 368.506 450.534V450.869L366.296 454.691ZM344.347 452.383H364.963L366.191 450.259C365.968 437.787 361.134 425.839 352.619 416.715H344.348L334.04 434.555L344.347 452.383Z" fill="white"/>
<path d="M342.693 496.823L331.372 477.25L343.013 457.103H366.295L367.79 459.677L367.774 460.193C366.512 467.541 363.717 474.543 359.571 480.743C355.425 486.943 350.021 492.203 343.709 496.182L342.693 496.823ZM334.04 477.25L343.483 493.577C349.205 489.78 354.098 484.866 357.869 479.131C361.64 473.397 364.211 466.959 365.427 460.206L364.964 459.411H344.348L334.04 477.25Z" fill="white"/>
<path d="M288.929 497.321L287.921 496.713C281.612 492.904 276.163 487.829 271.919 481.809C267.675 475.789 264.728 468.954 263.264 461.738L263.179 461.311L265.613 457.103H288.897L300.538 477.25L288.929 497.321ZM265.617 461.708C267.02 468.334 269.733 474.613 273.596 480.178C277.459 485.743 282.395 490.482 288.114 494.118L297.87 477.25L287.562 459.411H266.947L265.617 461.708Z" fill="white"/>
<path d="M288.896 452.383H265.614L262.445 446.912V446.602C263.585 433.525 269.551 421.338 279.183 412.408L279.516 412.099H288.897L300.538 432.247L288.896 452.383ZM266.946 450.075H287.563L297.87 432.247L287.562 414.407H280.427C271.515 422.809 265.956 434.156 264.784 446.341L266.946 450.075Z" fill="white"/>
</g>
<defs>
<clipPath id="clip0_1_1221">
<rect width="990" height="589" fill="white"/>
</clipPath>
</defs>
</svg>
